# xmcd
#
# Track frame offsets:
#	150
#	18287
#	104204
#	179415
#	291923
#
# Disc length: 4135 seconds
#
# Revision: 0
# Processed by: cddbd v1.5.2PL0 Copyright (c) Steve Scherf et al.
# Submitted via: audiograbber 1.83.01
#
DISCID=46102505
DTITLE=Klaus Schulze's U.S.O. - Privée [ex: Contemporary Works [CD 04) [2000]]
DYEAR=2016
DGENRE=Electronic
TTITLE0=The Keyhole
TTITLE1=Privat
TTITLE2=Privée
TTITLE3=Private
TTITLE4=Privatissimo [bonus track]
EXTD=
EXTT0=
EXTT1=
EXTT2=
EXTT3=
EXTT4=
PLAYORDER=
